<svg height="318" viewBox="0 0 900 318" width="900" xmlns="http://www.w3.org/2000/svg" xmlns:xlink="http://www.w3.org/1999/xlink"><marker id="a" markerHeight="6" markerWidth="8" orient="auto" refX="7" refY="3"><path d="m0 0 8 3-8 3z" fill="#94a3b8"/></marker><linearGradient id="b" x1="0" x2="0" y1="0" y2="1"><stop offset="0" stop-color="#2563eb"/><stop offset="1" stop-color="#1d4ed8"/></linearGradient><rect fill="#f8fafc" height="318" rx="16" width="900"/><rect fill="none" height="318" rx="16" stroke="#e2e8f0" width="900"/><text fill="#0f172a" font-family="system-ui,-apple-system,BlinkMacSystemFont,sans-serif" font-size="21" font-weight="800" text-anchor="middle" x="450" y="42">linkding-ai-sync</text><text fill="#64748b" font-family="system-ui,-apple-system,BlinkMacSystemFont,sans-serif" font-size="12" text-anchor="middle" x="450" y="63">Sync GitHub stars to Linkding with AI-powered tags and summaries</text><rect fill="#1c2128" height="96" rx="12" width="168" x="25" y="88"/><path d="m109 100 3.4 10h10.6l-8.4 6 3.3 10-8.9-5.7-8.9 5.7 3.3-10-8.4-6h10.6z" fill="#e3b341"/><text fill="#fff" font-family="system-ui,-apple-system,sans-serif" font-size="13" font-weight="600" text-anchor="middle" x="109" y="149">GitHub Stars</text><text fill="#8b949e" font-family="system-ui,-apple-system,sans-serif" font-size="10" text-anchor="middle" x="109" y="166">repos · READMEs</text><path d="m193 136h143" marker-end="url(#a)" stroke="#94a3b8" stroke-width="1.5"/><text fill="#94a3b8" font-family="system-ui,-apple-system,sans-serif" font-size="10" text-anchor="middle" x="264" y="128">new stars</text><rect fill="url(#b)" height="136" rx="12" width="224" x="338" y="72"/><circle cx="450" cy="105" fill="none" r="10" stroke="#93c5fd" stroke-width="1.5"/><circle cx="450" cy="105" fill="#93c5fd" r="4"/><path d="m450 91v4" stroke="#93c5fd" stroke-linecap="round" stroke-width="2.5"/><path d="m450 115v4" stroke="#93c5fd" stroke-linecap="round" stroke-width="2.5"/><path d="m436 105h4" stroke="#93c5fd" stroke-linecap="round" stroke-width="2.5"/><path d="m460 105h4" stroke="#93c5fd" stroke-linecap="round" stroke-width="2.5"/><g text-anchor="middle"><text fill="#fff" font-family="system-ui,-apple-system,sans-serif" font-size="14" font-weight="700" x="450" y="136">linkding-ai-sync</text><text fill="#bfdbfe" font-family="system-ui,-apple-system,sans-serif" font-size="10" x="450" y="152">skip existing · preserve tags</text><text fill="#bfdbfe" font-family="system-ui,-apple-system,sans-serif" font-size="10" x="450" y="167">AI enrichment</text><text fill="#93c5fd" font-family="system-ui,-apple-system,sans-serif" font-size="10" x="450" y="184">↻ runs every 3600s</text></g><path d="m562 126h139" marker-end="url(#a)" stroke="#94a3b8" stroke-width="1.5"/><text fill="#94a3b8" font-family="system-ui,-apple-system,sans-serif" font-size="10" text-anchor="middle" x="631" y="118">new bookmarks</text><path d="m703 153h-139" marker-end="url(#a)" stroke="#94a3b8" stroke-dasharray="4 3" stroke-width="1.5"/><text fill="#94a3b8" font-family="system-ui,-apple-system,sans-serif" font-size="10" text-anchor="middle" x="633" y="167">re-tag existing (opt.)</text><rect fill="#c2410c" height="96" rx="12" width="168" x="703" y="88"/><path d="m769 100h24v30l-12-7-12 7z" fill="none" stroke="#fed7aa" stroke-linejoin="round" stroke-width="2"/><text fill="#fff" font-family="system-ui,-apple-system,sans-serif" font-size="13" font-weight="600" text-anchor="middle" x="781" y="148">Linkding</text><text fill="#fed7aa" font-family="system-ui,-apple-system,sans-serif" font-size="10" text-anchor="middle" x="781" y="165">bookmarks + notes</text><rect fill="#4c1d95" height="60" rx="12" width="224" x="338" y="236"/><text fill="#fff" font-family="system-ui,-apple-system,sans-serif" font-size="13" font-weight="600" text-anchor="middle" x="450" y="261">OpenRouter</text><text fill="#e9d5ff" font-family="system-ui,-apple-system,sans-serif" font-size="10" text-anchor="middle" x="450" y="279">AI summary + topic tags</text><path d="m450 236v-24" marker-end="url(#a)" stroke="#a78bfa" stroke-dasharray="5 3" stroke-width="1.5"/><text fill="#a78bfa" font-family="system-ui,-apple-system,sans-serif" font-size="10" x="462" y="226">AI</text></svg>